<svg viewBox="0 0 96 96" xml:space="preserve" xmlns="http://www.w3.org/2000/svg"><path d="M87.598 15.029c-9.373-9.373-24.568-9.373-33.94 0L48 20.686l-5.657-5.656c-9.373-9.373-24.569-9.373-33.941 0-9.373 9.373-9.373 24.568 0 33.941l5.657 5.654L48 88.566l33.941-33.941 5.656-5.654c9.374-9.373 9.374-24.569.001-33.942zM70.627 54.627 48 77.254 25.374 54.627 14.061 43.314c-6.249-6.248-6.249-16.379 0-22.629 6.249-6.248 16.379-6.248 22.627 0L48 32l11.314-11.314c6.248-6.248 16.379-6.248 22.627 0 6.248 6.25 6.248 16.379 0 22.629L70.627 54.627z" fill="gray" class="fill-000000"></path></svg>